<svg xmlns="http://www.w3.org/2000/svg" viewBox="0 0 1378 400" width="1378" height="400" role="img" aria-labelledby="title desc">
  <title id="title">Martínez Gas - Plomería</title>
  <desc id="desc">Logo vectorial con fondo transparente</desc>
  <g shape-rendering="geometricPrecision">
    <path d="M 278 311 L 270 333 L 287 333 L 279 311 Z M 1221 310 L 1213 328 L 1212 333 L 1229 333 Z M 1069 305 L 1069 320 L 1093 320 L 1098 316 L 1099 313 L 1098 308 L 1093 305 Z M 577 305 L 577 322 L 597 322 L 602 319 L 603 310 L 601 307 L 597 305 Z M 759 305 L 755 307 L 750 312 L 747 319 L 747 333 L 750 340 L 758 346 L 762 347 L 775 346 L 782 341 L 785 335 L 786 321 L 784 314 L 778 307 L 774 305 L 769 304 Z M 8 261 L 8 390 L 1172 390 L 1173 391 L 1177 390 L 1369 390 L 1369 261 Z M 466 324 L 468 322 L 494 322 L 495 323 L 495 337 L 494 338 L 468 338 L 466 336 Z M 1209 289 L 1233 289 L 1236 291 L 1243 309 L 1266 359 L 1265 362 L 1242 362 L 1240 360 L 1235 348 L 1234 349 L 1230 348 L 1205 349 L 1202 358 L 1199 362 L 1177 362 L 1176 361 L 1203 299 Z M 1144 289 L 1162 289 L 1164 292 L 1163 296 L 1164 357 L 1162 362 L 1141 362 L 1140 361 L 1140 291 Z M 1046 291 L 1048 289 L 1094 289 L 1095 290 L 1107 291 L 1115 295 L 1120 300 L 1122 304 L 1123 316 L 1119 324 L 1108 331 L 1124 358 L 1124 361 L 1123 362 L 1100 362 L 1096 357 L 1091 346 L 1084 335 L 1069 335 L 1069 361 L 1068 362 L 1047 362 L 1046 361 Z M 959 289 L 1025 289 L 1027 291 L 1027 304 L 1025 306 L 980 306 L 980 317 L 1018 317 L 1019 318 L 1019 332 L 1018 333 L 980 333 L 980 345 L 981 346 L 1027 346 L 1028 347 L 1028 361 L 1027 362 L 958 362 L 957 361 L 957 355 L 956 354 L 956 346 L 957 345 L 956 307 L 957 306 L 957 291 Z M 829 291 L 831 289 L 863 289 L 866 292 L 882 332 L 898 294 L 902 289 L 934 289 L 935 290 L 935 361 L 934 362 L 913 362 L 912 361 L 912 310 L 894 354 L 889 362 L 872 362 L 852 312 L 852 360 L 850 362 L 830 362 L 829 361 Z M 646 289 L 664 289 L 668 291 L 668 345 L 710 345 L 711 346 L 711 361 L 710 362 L 646 362 L 645 361 L 645 290 Z M 553 361 L 553 291 L 557 289 L 598 289 L 599 290 L 606 290 L 617 294 L 624 301 L 627 308 L 627 319 L 624 326 L 618 332 L 613 335 L 606 337 L 577 337 L 577 360 L 575 362 L 554 362 Z M 267 289 L 292 289 L 294 291 L 297 300 L 302 309 L 305 318 L 323 357 L 322 362 L 300 362 L 298 360 L 293 348 L 263 349 L 261 356 L 257 362 L 236 362 L 235 361 L 235 357 L 246 334 L 249 325 L 255 314 L 263 294 Z M 729 303 L 738 295 L 746 291 L 758 288 L 775 288 L 790 292 L 798 297 L 805 304 L 809 312 L 811 322 L 811 331 L 806 346 L 800 353 L 791 359 L 777 363 L 756 363 L 747 361 L 738 357 L 727 346 L 722 333 L 722 319 L 724 312 Z M 343 296 L 354 290 L 363 288 L 387 289 L 402 296 L 408 304 L 408 307 L 405 309 L 388 311 L 385 307 L 379 304 L 365 304 L 360 307 L 360 310 L 361 312 L 366 314 L 390 318 L 404 324 L 408 328 L 411 334 L 411 344 L 407 352 L 398 359 L 384 363 L 360 363 L 349 360 L 343 357 L 335 349 L 332 343 L 333 340 L 355 338 L 356 341 L 360 345 L 365 347 L 381 347 L 384 346 L 387 343 L 387 340 L 385 337 L 351 330 L 343 326 L 338 321 L 336 316 L 336 307 L 338 302 Z M 141 304 L 152 294 L 165 289 L 170 289 L 171 288 L 195 289 L 212 297 L 216 301 L 221 310 L 220 314 L 218 315 L 198 316 L 196 311 L 190 306 L 181 304 L 172 305 L 168 307 L 163 312 L 160 319 L 160 333 L 163 340 L 167 344 L 175 347 L 185 347 L 194 344 L 198 337 L 180 337 L 179 336 L 179 323 L 180 322 L 220 322 L 222 327 L 222 334 L 221 335 L 222 360 L 220 362 L 209 362 L 207 359 L 206 354 L 199 359 L 188 363 L 166 363 L 150 357 L 142 350 L 138 344 L 135 336 L 135 317 Z M 1145 285 L 1146 281 L 1154 272 L 1170 272 L 1171 273 L 1171 275 L 1158 286 L 1146 286 Z" fill="#FFE500" fill-rule="evenodd"/>
    <path d="M 468 323 L 468 337 L 493 337 L 493 323 L 473 323 L 472 324 Z M 1209 291 L 1191 329 L 1178 360 L 1199 360 L 1205 347 L 1236 347 L 1242 360 L 1265 360 L 1260 351 L 1254 335 L 1234 291 Z M 1220 309 L 1222 310 L 1227 324 L 1231 332 L 1230 334 L 1211 334 L 1210 333 L 1217 314 Z M 1142 291 L 1141 293 L 1141 358 L 1142 359 L 1141 360 L 1162 360 L 1162 291 Z M 1047 291 L 1047 360 L 1068 360 L 1067 350 L 1068 349 L 1068 335 L 1069 334 L 1085 334 L 1100 360 L 1123 360 L 1106 331 L 1115 326 L 1118 323 L 1121 317 L 1121 306 L 1119 301 L 1114 296 L 1108 293 L 1098 291 Z M 1068 304 L 1069 303 L 1090 303 L 1094 304 L 1100 309 L 1100 315 L 1096 320 L 1091 322 L 1069 322 L 1068 321 Z M 958 291 L 958 360 L 1026 360 L 1026 347 L 980 347 L 979 346 L 979 333 L 981 331 L 1018 331 L 1018 319 L 1011 319 L 1010 318 L 981 319 L 979 317 L 979 305 L 980 304 L 1025 304 L 1026 303 L 1026 291 Z M 831 291 L 831 360 L 850 360 L 850 310 L 851 309 L 853 311 L 872 360 L 890 360 L 905 322 L 912 308 L 913 309 L 913 360 L 934 360 L 934 291 L 901 291 L 893 311 L 889 318 L 887 325 L 882 334 L 879 329 L 864 291 Z M 646 291 L 646 360 L 709 360 L 709 354 L 710 353 L 709 349 L 710 347 L 709 346 L 708 347 L 701 347 L 700 346 L 668 346 L 667 345 L 667 291 Z M 555 360 L 575 360 L 575 337 L 576 336 L 603 336 L 612 334 L 619 330 L 624 324 L 626 318 L 626 309 L 622 300 L 614 294 L 602 291 L 555 291 L 554 295 L 555 298 L 555 321 L 554 322 L 554 327 L 555 328 L 554 357 Z M 575 305 L 577 303 L 578 304 L 580 303 L 598 304 L 604 309 L 605 312 L 604 318 L 599 323 L 577 324 L 575 322 Z M 266 291 L 236 360 L 257 360 L 263 347 L 294 347 L 300 360 L 322 360 L 319 351 L 302 315 L 300 308 L 295 299 L 293 292 L 292 291 Z M 278 309 L 281 312 L 289 333 L 288 334 L 269 334 L 268 333 Z M 737 297 L 727 308 L 723 322 L 723 330 L 726 342 L 729 347 L 736 354 L 743 358 L 753 361 L 771 362 L 772 361 L 780 361 L 790 358 L 798 353 L 803 348 L 807 341 L 809 334 L 809 317 L 806 308 L 797 298 L 786 292 L 778 290 L 755 290 L 747 292 Z M 758 304 L 772 303 L 779 306 L 785 313 L 787 319 L 787 333 L 784 340 L 776 347 L 773 348 L 759 348 L 755 346 L 747 337 L 745 328 L 746 317 L 749 311 L 754 306 Z M 340 301 L 337 309 L 337 314 L 339 320 L 345 326 L 360 331 L 383 335 L 389 341 L 388 344 L 385 347 L 379 349 L 363 348 L 359 346 L 355 342 L 354 339 L 334 341 L 334 344 L 336 348 L 341 354 L 348 358 L 358 361 L 380 362 L 394 359 L 402 355 L 407 350 L 410 342 L 410 336 L 408 330 L 402 324 L 392 320 L 362 314 L 358 309 L 360 305 L 363 303 L 368 302 L 375 302 L 383 304 L 388 310 L 407 307 L 405 301 L 400 296 L 392 292 L 384 290 L 361 290 L 353 292 L 345 296 Z M 141 306 L 138 312 L 136 320 L 136 333 L 140 345 L 148 354 L 155 358 L 171 362 L 190 361 L 200 357 L 205 353 L 207 354 L 210 361 L 220 360 L 220 323 L 180 323 L 180 336 L 198 336 L 199 337 L 198 341 L 193 346 L 187 348 L 173 348 L 168 346 L 162 341 L 158 330 L 158 322 L 160 314 L 167 306 L 174 303 L 185 303 L 191 305 L 197 310 L 199 315 L 220 313 L 216 303 L 211 298 L 202 293 L 191 290 L 168 290 L 153 295 L 147 299 Z M 1145 285 L 1157 285 L 1171 273 L 1157 273 L 1156 274 L 1155 273 Z" fill="#000000" fill-rule="evenodd"/>
    <path d="M 1203 162 L 1203 239 L 1364 239 L 1364 191 L 1260 191 L 1254 184 L 1244 178 L 1245 175 L 1335 175 L 1363 141 L 1363 131 L 1364 130 L 1363 129 L 1234 129 Z M 778 73 L 778 239 L 828 239 L 828 73 Z M 1207 65 L 1208 66 L 1208 113 L 1363 113 L 1363 64 L 1362 65 L 1358 64 L 1347 64 L 1346 65 L 1335 65 L 1334 64 L 1208 64 Z M 1059 63 L 1026 99 L 1026 206 L 1057 239 L 1191 239 L 1191 191 L 1084 191 L 1082 189 L 1082 171 L 1084 169 L 1193 169 L 1194 164 L 1194 99 L 1165 63 Z M 1070 113 L 1138 113 L 1140 115 L 1140 128 L 1139 129 L 1084 129 L 1081 124 L 1072 119 L 1069 116 Z M 846 64 L 846 239 L 899 239 L 899 150 L 873 128 L 866 121 L 867 118 L 952 118 L 958 120 L 958 233 L 1010 233 L 1010 101 L 980 63 Z M 584 63 L 491 63 L 463 95 L 463 239 L 516 239 L 516 145 L 488 123 L 487 120 L 494 118 L 509 118 L 510 119 L 517 118 L 530 118 L 531 119 L 584 118 Z M 287 63 L 286 64 L 286 116 L 388 116 L 389 117 L 389 134 L 388 135 L 304 135 L 276 161 L 276 211 L 306 239 L 445 239 L 445 103 L 413 63 Z M 317 174 L 318 173 L 388 173 L 389 174 L 389 189 L 387 191 L 334 191 L 330 185 L 319 178 Z M 643 33 L 643 62 L 642 63 L 597 64 L 597 119 L 642 119 L 643 120 L 643 204 L 674 239 L 748 239 L 748 186 L 696 186 L 695 185 L 695 142 L 673 126 L 671 122 L 672 121 L 759 121 L 759 64 L 758 63 L 748 64 L 696 63 L 695 62 L 695 33 Z M 8 8 L 8 239 L 67 239 L 68 238 L 68 150 L 69 149 L 73 151 L 113 211 L 154 211 L 196 149 L 198 149 L 200 152 L 200 239 L 260 239 L 261 238 L 261 9 L 260 8 L 188 8 L 135 102 L 133 102 L 128 95 L 80 8 Z" fill="#FFFFFF" fill-rule="evenodd"/>
    <path d="M 778 10 L 778 52 L 828 52 L 829 51 L 828 50 L 829 47 L 828 46 L 828 16 L 829 15 L 828 10 Z" fill="#FF2414" fill-rule="evenodd"/>
  </g>
</svg>