<?xml version="1.0" encoding="UTF-8" standalone="no"?>
<!-- Created with Inkscape (http://www.inkscape.org/) -->

<svg
   version="1.1"
   id="svg1"
   width="5334.6665"
   height="5333.3335"
   viewBox="0 0 5334.6665 5333.3335"
   sodipodi:docname="llamita.svg"
   xml:space="preserve"
   inkscape:version="1.4.4 (dcaf3e7d9e, 2026-05-05)"
   xmlns:inkscape="http://www.inkscape.org/namespaces/inkscape"
   xmlns:sodipodi="http://sodipodi.sourceforge.net/DTD/sodipodi-0.dtd"
   xmlns="http://www.w3.org/2000/svg"
   xmlns:svg="http://www.w3.org/2000/svg"><defs
     id="defs1" /><sodipodi:namedview
     id="namedview1"
     pagecolor="#ffffff"
     bordercolor="#000000"
     borderopacity="0.25"
     inkscape:showpageshadow="2"
     inkscape:pageopacity="0.0"
     inkscape:pagecheckerboard="0"
     inkscape:deskcolor="#d1d1d1"
     inkscape:zoom="0.029293415"
     inkscape:cx="-1741.0056"
     inkscape:cy="2423.7529"
     inkscape:window-width="1366"
     inkscape:window-height="699"
     inkscape:window-x="0"
     inkscape:window-y="0"
     inkscape:window-maximized="1"
     inkscape:current-layer="g1"><inkscape:page
       x="0"
       y="0"
       inkscape:label="1"
       id="page1"
       width="5334.6665"
       height="5333.3335"
       margin="0"
       bleed="0" /></sodipodi:namedview><g
     id="g1"
     inkscape:groupmode="layer"
     inkscape:label="1"><path
       id="path2"
       d="M -2277.966,5350.402 H -7612.6325 V 17.068783 H -2277.966 V 5350.402"
       style="fill:#ffffff;fill-opacity:1;fill-rule:nonzero;stroke:none;stroke-width:1;stroke-dasharray:none" /><path
       id="path3"
       d="m -3503.8059,1416.6821 c -150.2,-91.4933 -236.2,-291.2667 -171.8,-458.74668 3.5733,-9.29333 7.5733,-18.44 11.9333,-27.38666 137.1333,-281.62666 266.8667,-400.21333 240.92,-689.25332 0,0 470.7333,533.59999 426.2667,911.58666 -22.0667,187.48 -195,343 -388.2,309.2 -42.6534,-7.4667 -82.7734,-23.2667 -119.12,-45.4"
       style="fill:#ff6e19;fill-opacity:1;fill-rule:nonzero;stroke:none;stroke-width:1;stroke-dasharray:none" /><path
       id="path4"
       d="m -3331.4993,1435.2288 c -15.8666,0 -31.9333,-1.4 -47.76,-4.1734 -37.6,-6.5733 -73.9866,-20.4666 -108.16,-41.28 -145.6133,-88.6933 -215.3466,-273.4133 -158.7733,-420.54664 3.2,-8.32 6.8533,-16.70667 10.84,-24.89334 34,-69.82666 68.3333,-130.90666 98.6267,-184.81333 78.8666,-140.34666 143.6266,-255.57332 148.48,-426.58665 122.56,155.55999 393.4933,535.49332 360.4666,816.26666 -18.88,160.3867 -152.28,286.0267 -303.72,286.0267"
       style="fill:#e63c00;fill-opacity:1;fill-rule:nonzero;stroke:none;stroke-width:1;stroke-dasharray:none" /><path
       id="path5"
       d="m -3446.7926,1434.6821 c -96.16,-58.56 -151.2,-186.44 -109.9733,-293.6533 2.28,-5.96 4.84,-11.8 7.6266,-17.5334 87.8,-180.29331 170.84,-256.19997 154.2267,-441.22664 0,0 301.3467,341.58664 272.88,583.54664 -14.12,120.0267 -124.8267,219.5734 -248.5067,197.9334 -27.3066,-4.7734 -52.9866,-14.8934 -76.2533,-29.0667"
       style="fill:#f28705;fill-opacity:1;fill-rule:nonzero;stroke:none;stroke-width:1;stroke-dasharray:none" /><path
       id="path6"
       d="m -3397.9259,1450.1221 c -49.8267,-30.3467 -78.3467,-96.6133 -56.9867,-152.16 1.1867,-3.08 2.5067,-6.12 3.96,-9.0933 45.4933,-93.4134 88.52,-132.7467 79.9067,-228.6267 0,0 156.1466,177 141.4,302.3867 -7.32,62.1866 -64.68,113.76 -128.7734,102.56 -14.1466,-2.48 -27.4533,-7.72 -39.5066,-15.0667"
       style="fill:#f29f05;fill-opacity:1;fill-rule:nonzero;stroke:none;stroke-width:1;stroke-dasharray:none" /><path
       id="path7"
       d="m -4773.7792,1466.7088 c 0,0 578.0266,12.56 376.9733,-657.44004 0,0 -8.3733,87.94666 -87.96,146.56 -79.5867,58.62664 -284.8267,-284.74666 -163.36,-682.55999 0,0 -309.9467,154.94667 -351.8267,443.87999 0,0 -54.4533,-75.37333 -29.32,-184.25333 0,0 -205.24,221.93333 -217.8133,519.25337 -12.56,297.3066 238.7467,402 473.3067,414.56"
       style="fill:#f25c05;fill-opacity:1;fill-rule:nonzero;stroke:none;stroke-width:1;stroke-dasharray:none" /><path
       id="path8"
       d="m -4772.6326,1431.1221 c -137.08,-7.4667 -452.3333,-59.3067 -438.88,-377.48 7.4,-175.01334 86.1467,-324.37334 144.68,-412.32 10.72,58.12 36.3334,94.34666 38.0134,96.66666 l 51.48,71.26667 12.6133,-87 c 26.4533,-182.46666 171.0933,-309.87999 260.6933,-372.61332 -48.4666,242.62666 11.1867,464.75998 95.6934,578.82665 33.68,45.46666 69.52,69.50666 103.6133,69.50666 0.013,0 0.013,0 0.027,0 14.88,0 29.08,-4.66666 41.0533,-13.49333 25.3333,-18.66667 44.4533,-39.86667 58.8667,-60.85333 30.8266,156.21334 13.9466,278.89334 -50.52,365.52004 -102.7067,138 -294.72,141.9866 -316.28,141.9866 l -1.0534,-0.013"
       style="fill:#e63c00;fill-opacity:1;fill-rule:nonzero;stroke:none;stroke-width:1;stroke-dasharray:none" /><path
       id="path9"
       d="m -4837.5926,1431.1221 c 0,0 323.1467,7.2667 210.7467,-380.4267 0,0 -4.68,50.88 -49.1733,84.8134 -44.4934,33.92 -159.2267,-164.77338 -91.32,-394.97337 0,0 -173.28,89.65333 -196.6934,256.85333 0,0 -30.44,-43.61334 -16.3866,-106.61334 0,0 -114.7467,128.42668 -121.7734,300.46668 -7.0133,172.04 133.48,232.6133 264.6,239.88"
       style="fill:#f28705;fill-opacity:1;fill-rule:nonzero;stroke:none;stroke-width:1;stroke-dasharray:none" /><path
       id="path10"
       d="m -4871.8859,1431.1221 c 0,0 161.5733,3.64 105.3733,-190.2133 0,0 -2.3333,25.4533 -24.5866,42.4133 -22.24,16.96 -79.6134,-82.3867 -45.6534,-197.48 0,0 -86.64,44.8267 -98.3466,128.4133 0,0 -15.2267,-21.8 -8.2,-53.3066 0,0 -57.3734,64.2133 -60.88,150.24 -3.5067,86.0133 66.7333,116.3066 132.2933,119.9333"
       style="fill:#f29f05;fill-opacity:1;fill-rule:nonzero;stroke:none;stroke-width:1;stroke-dasharray:none" /><path
       id="path11"
       d="m -6417.2779,1466.5354 c 66.264,-1.7733 132.5254,-15.7733 194.952,-38.48 141.96,-51.64 273.92,-159.0933 308.7467,-306.04 23.1067,-97.4266 0.16,-203.27998 -54.84,-286.95997 -2.1467,53.90666 -15.9467,107.30666 -40.1733,155.50666 -12.0534,23.97331 -31.7067,49.53331 -58.52,48.54671 -30.6934,-1.1334 -48.5334,-37.1867 -47.4534,-67.85338 2.1467,-60.61333 48.96,-111.14666 58.96,-170.95999 7.6,-45.53334 -7.1733,-92.53333 -31.4133,-131.84 -24.24,-39.29333 -57.44,-72.13333 -90.32,-104.56 10.0267,36.54667 19.6667,74.12 16.3333,111.85333 -3.3333,37.74667 -22.12,76.28 -55.96,93.32 -9.8,4.93333 -21.6133,7.88 -31.64,3.44 -14.64,-6.50667 -18.8666,-25.06666 -19.8533,-41.05333 -2.4533,-40.13333 3.68,-80.37333 2.0133,-120.53333 -5.2933,-126.97333 -96.7413,-245.86666 -218.12,-283.61333 14.3507,53.05333 28.7854,106.61333 31.3947,161.50666 2.6107,54.90667 -7.5307,112 -38.6787,157.29333 -20.14,29.28 -58.9866,54 -89.7533,36.2 -12.9413,-7.48 -21.1813,-20.97333 -27.4533,-34.54666 -21.1093,-45.66667 -25.652,-98.78667 -12.604,-147.37333 -51.4106,49.73333 -81.3066,120.98666 -80.7733,192.50666 0.5347,71.85333 30.1773,142.72 20.152,213.87999 -3.864,27.42667 -18.2467,58.09334 -45.556,62.77334 -18.7427,3.2 -37.768,-7.78667 -48.8907,-23.2 -11.1226,-15.42667 -15.6853,-34.56 -18.608,-53.34667 -7.4586,-47.93333 -5.7613,-97.28 4.972,-144.59999 -1.6066,7.07999 -37.6746,32.21333 -44.616,39.38666 -12.6746,13.12 -20.0013,23.16 -27.1893,40.53333 -16.5387,39.94667 -27.204,82.29333 -31.9867,125.25333 -9.4106,84.54668 3.9547,171.83998 40.328,248.87998 59.8,126.6667 180.436,222.9067 317.248,253.0934 39.204,8.6533 79.2533,12.0533 119.3026,10.9866"
       style="fill:#ff6e19;fill-opacity:1;fill-rule:nonzero;stroke:none;stroke-width:1;stroke-dasharray:none" /><path
       id="path12"
       d="m -6431.4885,1433.2288 c -33.7147,0 -66.6454,-3.4934 -97.8747,-10.3867 -126.2573,-27.8533 -238.9759,-117.7867 -294.1653,-234.68 -33.364,-70.68 -46.272,-150.5067 -37.3266,-230.88001 4.2946,-38.57333 13.5706,-75.92 27.588,-111.09333 0.524,17.33333 2.1306,34.66667 4.8226,51.96 3.116,20.04 8.72,45.85333 24.5374,67.78666 16.7573,23.24 43.368,37.66668 69.448,37.66668 4.1186,0 8.2493,-0.36 12.2786,-1.04 45.512,-7.80001 67.5907,-52.17334 73.08,-91.12001 6.52,-46.28 -1.472,-90.58666 -9.2066,-133.45333 -5.3547,-29.68 -10.4147,-57.72 -10.6187,-85.33333 -0.196,-26.30667 4.4173,-52.74667 13.2027,-77.77333 3.8253,16.06666 9.2493,31.78666 16.2506,46.93333 6.9627,15.06667 18.7987,36.6 41.0866,49.49333 12.0454,6.97334 25.2774,10.50667 39.328,10.50667 41.196,0 76.8227,-30.56 94.82,-56.73333 40.9667,-59.56 46.832,-129.58667 44.5374,-177.85333 -1.636,-34.42667 -7.4974,-67.84 -15.0067,-100.48 77.2027,47.86667 130.9853,134.57333 134.7773,225.57333 0.732,17.57333 -0.176,35.41333 -1.1333,54.30666 -1.1,21.62667 -2.2373,43.97334 -0.8387,66.86667 2.704,44.2 23.096,62.25333 39.7227,69.62666 7.5733,3.36 15.7867,5.06667 24.4133,5.06667 11.6934,0 23.76,-3.09333 35.88,-9.2 41.08,-20.69333 69.5334,-66.78666 74.2534,-120.29333 0.2933,-3.25333 0.4933,-6.50667 0.6266,-9.73333 4.0534,5.58666 7.8934,11.28 11.4667,17.09333 22.8667,37.04 32.4,75.66666 26.88,108.72 -3.76,22.50666 -14.5467,44.92 -25.96,68.65333 -15.7333,32.73333 -32.0133,66.57333 -33.4267,106.64 -1.6933,47.82664 28.2934,100.61334 79.6934,102.52004 0.92,0.027 2.7333,0.053 2.7333,0.053 34.36,-0.013 65.24,-23.8133 86.9733,-67.04 9.9067,-19.72001 18.24,-40.33334 24.88,-61.50668 17.4,56.37338 20.4667,115.87998 7.5867,170.18668 -28.8667,121.76 -136.3733,227.2933 -287.6133,282.2933 -62.104,22.5867 -124.1414,34.8667 -184.3814,36.48 -4.4386,0.1067 -8.876,0.1734 -13.3146,0.1734"
       style="fill:#e63c00;fill-opacity:1;fill-rule:nonzero;stroke:none;stroke-width:1;stroke-dasharray:none" /><path
       id="path13"
       d="m -6411.0112,1437.0554 c 40.6507,-1.0933 81.3013,-9.68 119.5973,-23.6133 87.088,-31.68 168.048,-97.6 189.408,-187.7467 14.1734,-59.7733 0.1067,-124.7066 -33.64,-176.04 -1.32,33.0667 -9.7733,65.8267 -24.64,95.4 -7.4,14.7067 -19.4533,30.3867 -35.9066,29.7734 -18.8267,-0.6934 -29.7734,-22.8 -29.1067,-41.6267 1.3067,-37.1733 30.0267,-68.1867 36.16,-104.88 4.6667,-27.9333 -4.3867,-56.77334 -19.2667,-80.86668 -14.8666,-24.10666 -35.24,-44.26666 -55.4,-64.15999 6.1467,22.42666 12.0534,45.46666 10.0134,68.62666 -2.04,23.16 -13.5734,46.78667 -34.3347,57.25331 -6.008,3.0267 -13.256,4.8267 -19.4053,2.1067 -8.9854,-3.9867 -11.58,-15.38668 -12.18,-25.18668 -1.5054,-24.62666 2.256,-49.30666 1.2293,-73.94666 -3.2453,-77.89333 -59.3453,-150.84 -133.8093,-173.98666 8.8053,32.54666 17.66,65.39999 19.2613,99.07999 1.6013,33.68 -4.6213,68.70667 -23.7293,96.49333 -12.3547,17.96 -36.1867,33.13334 -55.0614,22.21334 -7.94,-4.6 -12.9946,-12.86667 -16.8426,-21.2 -12.9507,-28.01334 -15.7374,-60.6 -7.732,-90.41333 -31.54,30.52 -49.88,74.22666 -49.5534,118.10666 0.328,44.08001 18.5134,87.54671 12.3627,131.20001 -2.3707,16.8267 -11.1933,35.64 -27.9467,38.5067 -11.4986,1.9733 -23.1706,-4.76 -29.9946,-14.2267 -6.8226,-9.4533 -9.6213,-21.2 -11.4146,-32.72 -4.576,-29.4133 -3.5347,-59.68 3.0493,-88.70668 -0.9853,4.34668 -23.112,19.75998 -27.3707,24.15998 -7.776,8.04 -12.2706,14.2 -16.68,24.8534 -10.1466,24.52 -16.6893,50.4933 -19.624,76.8533 -5.772,51.8667 2.4267,105.4133 24.7414,152.68 36.6853,77.7067 110.6932,136.76 194.6252,155.2667 24.0507,5.3066 48.6214,7.4 73.1907,6.7466"
       style="fill:#f28705;fill-opacity:1;fill-rule:nonzero;stroke:none;stroke-width:1;stroke-dasharray:none" /><path
       id="path14"
       d="m -6406.1285,1437.1088 c 20.9413,-0.56 41.8813,-4.9867 61.608,-12.16 44.8626,-16.32 86.568,-50.28 97.568,-96.72 7.3066,-30.7867 0.053,-64.24 -17.3334,-90.68 -0.6666,17.0266 -5.0266,33.9066 -12.6933,49.1466 -3.8053,7.5734 -10.0147,15.6534 -18.492,15.3334 -9.696,-0.36 -15.3347,-11.7467 -14.992,-21.44 0.6773,-19.16 15.4693,-35.12 18.6293,-54.0267 2.4054,-14.3867 -2.264,-29.24 -9.9253,-41.6667 -7.6613,-12.4133 -18.1547,-22.7866 -28.5427,-33.04 3.1667,11.5467 6.2147,23.4267 5.1614,35.3467 -1.0534,11.9333 -6.9894,24.1067 -17.6867,29.4933 -3.0947,1.56 -6.828,2.4934 -9.996,1.08 -4.6293,-2.0533 -5.9653,-7.92 -6.2747,-12.9733 -0.7746,-12.68 1.1627,-25.3867 0.6334,-38.0933 -1.672,-40.12 -30.5707,-77.6934 -68.928,-89.6267 4.5346,16.7733 9.096,33.6933 9.9213,51.0533 0.8253,17.3467 -2.38,35.3867 -12.224,49.6934 -6.364,9.2533 -18.64,17.0666 -28.364,11.4533 -4.0893,-2.3733 -6.6933,-6.64 -8.676,-10.92 -6.6707,-14.44 -8.1067,-31.2267 -3.9827,-46.5733 -16.2466,15.72 -25.6946,38.2266 -25.5253,60.8266 0.168,22.7067 9.536,45.1067 6.368,67.6 -1.2213,8.6667 -5.7667,18.36 -14.3973,19.8267 -5.9227,1.0133 -11.9347,-2.4533 -15.4494,-7.3333 -3.516,-4.8667 -4.9573,-10.92 -5.8813,-16.8534 -2.3573,-15.1466 -1.82,-30.7466 1.572,-45.6933 -0.508,2.24 -11.9067,10.1867 -14.1,12.4533 -4.0053,4.1334 -6.3213,7.3067 -8.5933,12.8 -5.2267,12.6267 -8.596,26.0134 -10.108,39.5867 -2.9734,26.72 1.2493,54.3067 12.7453,78.6533 18.8973,40.0267 57.0213,70.44 100.256,79.9867 12.3893,2.7333 25.0467,3.8 37.7027,3.4667"
       style="fill:#f29f05;fill-opacity:1;fill-rule:nonzero;stroke:none;stroke-width:1;stroke-dasharray:none" /><path
       id="path15"
       d="m -4682.8859,1895.2421 c 0,0 -542.16,143.5866 -509.0533,543.88 33.1066,400.2933 335.2266,335.0266 107.6,691.8133 0,0 442.84,-78.32 538.0266,-382.8933 95.1867,-304.5734 -124.16,-435.1067 -173.8266,-565.64 -49.6667,-130.52 -24.8267,-204.4933 37.2533,-287.16"
       style="fill:#ff6e19;fill-opacity:1;fill-rule:nonzero;stroke:none;stroke-width:1;stroke-dasharray:none" /><path
       id="path16"
       d="m -5010.4592,3074.4821 c 82.8533,-161.7467 41.7066,-235.3867 -28.5067,-333.9067 -49.1733,-68.9733 -104.8933,-147.16 -117.92,-304.6667 -22.2667,-269.2 248.48,-415.2933 393.8667,-473.8799 -25.1867,63.3199 -27.2534,135.6133 10.2266,234.1199 15.5867,40.9734 44.3734,79.88 74.8667,121.0534 75.5467,102.0533 161.1867,217.7333 98.1867,419.2933 -63.72,203.9067 -303.8134,300.4 -430.72,337.9867"
       style="fill:#e63c00;fill-opacity:1;fill-rule:nonzero;stroke:none;stroke-width:1;stroke-dasharray:none" /><path
       id="path17"
       d="m -4863.7926,2097.4554 c 0,0 -240.2266,158.0267 -165.3466,407.08 74.8666,249.0533 210.9066,170.32 153.6933,424.1867 0,0 201.9467,-104.44 203.0133,-308.8667 1.0534,-204.4267 -123.8933,-259.7733 -167.0533,-336.1733 -43.1467,-76.3867 -42.0667,-126.2534 -24.3067,-186.2267"
       style="fill:#f28705;fill-opacity:1;fill-rule:nonzero;stroke:none;stroke-width:1;stroke-dasharray:none" /><path
       id="path18"
       d="m -4889.6859,2311.5354 c 0,0 -90.9067,84.9467 -41.6267,202.9733 49.2934,118.04 101.5334,75.1467 95.0534,200.1334 0,0 78.4266,-57.64 64.52,-156.72 -13.9067,-99.0667 -70.8534,-121.52 -94.5467,-157.0134 -23.68,-35.5066 -26.72,-59.6933 -23.4,-89.3733"
       style="fill:#f29f05;fill-opacity:1;fill-rule:nonzero;stroke:none;stroke-width:1;stroke-dasharray:none" /><path
       id="path19"
       d="m -5913.2192,2379.0154 c 0,0 -8.6133,103.4133 -79.7333,174.5067 0,0 30.1733,-342.56 -150.8534,-484.76 0,0 -6.4666,133.5733 -58.1866,200.36 0,0 -45.2534,-258.5333 -133.6147,-377.0267 -88.3587,118.4934 -133.6147,377.0267 -133.6147,377.0267 -51.72,-66.7867 -58.1866,-200.36 -58.1866,-200.36 -181.024,142.2 -150.8533,484.76 -150.8533,484.76 -71.116,-71.0934 -79.736,-174.5067 -79.736,-174.5067 0,0 -133.6147,310.24 -10.776,517.08 122.8387,206.8267 433.1666,234.84 433.1666,234.84 0,0 310.3213,-28.0133 433.1613,-234.84 122.84,-206.84 -10.7733,-517.08 -10.7733,-517.08"
       style="fill:#ff6e19;fill-opacity:1;fill-rule:nonzero;stroke:none;stroke-width:1;stroke-dasharray:none" /><path
       id="path20"
       d="m -6335.6085,3094.0954 c -32.7414,-3.8 -296.5226,-39.6667 -401.6626,-216.7067 -69.1,-116.3466 -48.2547,-272.76 -21.9987,-375.88 13.068,26.4 30.876,53.6934 55.1013,77.92 l 71.2374,71.2134 -8.8374,-100.3334 c -0.2453,-2.84 -20.4826,-254.68 87.748,-401.4666 8.8813,46.3466 25.4106,103.4266 55.8266,142.7066 l 50.736,65.52 14.32,-81.6133 c 0.384,-2.1867 34.292,-192.2933 97.5334,-313.7333 63.3186,121.52 97.1453,311.5466 97.5186,313.72 l 14.2934,81.6666 50.7733,-65.56 c 30.4133,-39.28 46.9333,-96.36 55.8267,-142.7066 108.2266,146.7866 87.9866,398.64 87.7333,401.4933 l -8.6667,100.12 71.08,-71.0267 c 24.2267,-24.2266 42.0267,-51.52 55.0934,-77.92 26.2666,103.1067 47.1066,259.5334 -22,375.88 -105.1334,177.04 -368.916,212.9067 -401.656,216.7067"
       style="fill:#e63c00;fill-opacity:1;fill-rule:nonzero;stroke:none;stroke-width:1;stroke-dasharray:none" /><path
       id="path21"
       d="m -6018.9925,2567.3221 c 0,0 -6.4667,77.5066 -59.7734,130.8 0,0 22.6134,-256.7734 -113.08,-363.36 0,0 -4.84,100.1333 -43.6133,150.1866 0,0 -33.92,-193.7866 -100.148,-282.6133 -66.2307,88.8267 -100.1533,282.6133 -100.1533,282.6133 -38.768,-50.0533 -43.6147,-150.1866 -43.6147,-150.1866 -135.6893,106.5866 -113.0733,363.36 -113.0733,363.36 -53.3066,-53.2934 -59.768,-130.8 -59.768,-130.8 0,0 -100.1533,232.5466 -8.0773,387.5866 92.0759,155.0267 324.6866,176.0267 324.6866,176.0267 0,0 232.6147,-21 324.6813,-176.0267 92.08,-155.04 -8.0666,-387.5866 -8.0666,-387.5866"
       style="fill:#f28705;fill-opacity:1;fill-rule:nonzero;stroke:none;stroke-width:1;stroke-dasharray:none" /><path
       id="path22"
       d="m -6152.6859,2805.3087 c 0,0 -3.7466,44.7867 -34.5333,75.5734 0,0 13.0667,-148.3467 -65.3333,-209.92 0,0 -2.8,57.84 -25.2,86.7733 0,0 -19.592,-111.96 -57.8547,-163.28 -38.264,51.32 -57.8627,163.28 -57.8627,163.28 -22.3973,-28.9333 -25.1973,-86.7733 -25.1973,-86.7733 -78.392,61.5733 -65.3267,209.92 -65.3267,209.92 -30.796,-30.7867 -34.5293,-75.5734 -34.5293,-75.5734 0,0 -57.8613,134.36 -4.6667,223.9334 53.196,89.56 187.5827,101.6933 187.5827,101.6933 0,0 134.388,-12.1333 187.5747,-101.6933 53.2,-89.5734 -4.6534,-223.9334 -4.6534,-223.9334"
       style="fill:#f29f05;fill-opacity:1;fill-rule:nonzero;stroke:none;stroke-width:1;stroke-dasharray:none" /><path
       id="path27"
       d="m -4892.3259,3556.2954 c -108.2933,159.6933 -303.2267,387.0533 -254.4933,533.2133 48.7333,146.16 94.76,254.4267 -56.8534,343.7467 -151.6133,89.32 -257.1866,446.5999 -67.68,606.2933 89.7067,75.6 218.44,90.3466 331.4534,85.92 104.8533,-4.12 255.96,-12.2534 332.6266,-96 77.4534,-84.6134 91.5734,-252.7467 64.2,-358.0267 -35.2,-135.3333 -227.4266,-273.3733 -268.0266,-313.9733 -40.6134,-40.6 -50.0934,-101.4933 -2.7067,-148.8667 47.3733,-47.36 78.5067,-78.4933 -16.2533,-148.8666 -94.7467,-70.3734 -186.8,-89.32 -132.6534,-251.72 54.1467,-162.4 70.3867,-251.72 70.3867,-251.72"
       style="fill:#ff6e19;fill-opacity:1;fill-rule:nonzero;stroke:none;stroke-width:1;stroke-dasharray:none" /><path
       id="path28"
       d="m -4975.5392,5080.162 c -116.92,0 -206.4667,-25.4933 -266.1467,-75.7867 -84.96,-71.5866 -89.1067,-183.6 -84.0267,-244 10.1867,-121.0399 72.6934,-244.6399 145.4,-287.4666 176.2134,-103.8133 129.5334,-242.4267 84.3867,-376.4667 l -7.2133,-21.48 c -22.36,-67.0133 28.7333,-169.8 92.88,-269.28 -48.0134,158.6134 34.28,212.32 107.0933,259.8267 14.9867,9.7733 30.48,19.88 45.6667,31.16 40.04,29.7467 43,42.9733 43.0133,43.0933 -1.56,6 -19.8,24.24 -31.8667,36.3067 -61.2266,61.2 -60.08,151.1733 2.7067,213.9333 9.1733,9.1867 23.28,21.1734 41.1333,36.3467 66.4667,56.48 190.1734,161.6133 214.8934,256.68 25.12,96.5866 9.5733,246.36 -53.6134,315.3733 -65.7866,71.88 -212.6933,77.64 -300.48,81.08 -11.1333,0.44 -22.4266,0.68 -33.8266,0.68"
       style="fill:#e63c00;fill-opacity:1;fill-rule:nonzero;stroke:none;stroke-width:1;stroke-dasharray:none" /><path
       id="path29"
       d="m -5000.6192,4698.5087 c 0,-62.2533 -40.6134,-138.04 -40.6134,-138.04 0,75.7867 -135.36,175.9333 -143.48,259.84 -8.12,83.9066 49.3734,287.1333 270.7334,243.6 221.3466,-43.52 178.68,-295.0267 67.68,-443.8933 -111,-148.8667 -135.3734,-254.4267 -135.3734,-395.1734 0,0 -67.68,143.4534 -27.0666,240.8934 40.6133,97.44 52.3333,154.28 38.3466,200.2933 -13.9866,46.0133 -30.2266,32.48 -30.2266,32.48"
       style="fill:#f28705;fill-opacity:1;fill-rule:nonzero;stroke:none;stroke-width:1;stroke-dasharray:none" /><path
       id="path30"
       d="m -4912.6592,4877.522 c 0,-28.84 -18.8134,-63.96 -18.8134,-63.96 0,35.12 -62.72,81.52 -66.4933,120.4133 -3.76,38.88 22.8933,133.04 125.4533,112.88 102.5734,-20.1733 82.8,-136.72 31.3734,-205.7066 -51.44,-68.9734 -62.7334,-117.8934 -62.7334,-183.1067 0,0 -31.36,66.4667 -12.5466,111.6267 18.8266,45.1466 24.2533,71.48 17.7733,92.8133 -6.48,21.32 -14.0133,15.04 -14.0133,15.04"
       style="fill:#f29f05;fill-opacity:1;fill-rule:nonzero;stroke:none;stroke-width:1;stroke-dasharray:none" /><path
       id="path31"
       d="m -6113.1259,5030.6553 c -42.28,27.5867 -92.64,51.1334 -152.0666,67.88 -22.068,6.2134 -45.3267,11.5334 -69.964,15.76 -15.8654,2.76 -32.2254,5.1334 -49.2747,6.9067 -35.7733,3.84 -74.208,5.5067 -115.204,4.8267 -9.9533,-0.2 -20.104,-0.4934 -30.452,-0.9867 -4.7307,-0.2 -9.3613,-0.4933 -13.9933,-0.7867 -29.4667,-1.88 -57.06,-5.4266 -82.88,-10.4533 -50.7533,-9.84 -94.7066,-25.4133 -132.5493,-45.2133 -261.256,-136.76 -232.084,-479.6267 -141.616,-592.6267 111.2627,-139.12 74.208,-264.3466 74.208,-264.3466 74.208,18.6266 153.0467,125.2266 129.888,204.04 -23.2573,78.8266 -23.2573,204.0533 58.8333,171.5333 82.1906,-32.4133 70.956,-176.16 15.3747,-315.28 -30.452,-75.96 -9.8547,-156.9467 23.1586,-228.28 44.7413,-96.9467 112.3467,-209.0667 187.1453,-284.9333 0.788,76.6533 53.6107,165.4266 83.0774,234.6933 32.916,77.3333 67.3146,154.0933 98.0613,232.4133 22.2667,56.8534 12.8133,78.8267 -13.3067,129.1734 -32.92,63.84 -89.9773,218.0266 -2.56,264.7333 69.5734,37.04 83.4667,-46.4133 83.4667,-180.3067 0,-133.8933 167.04,-246.3066 167.04,-246.3066 -60.3067,194.7866 64.8533,370.9466 78.84,496.0666 8.68,78.3333 -37.0533,238.3333 -195.2267,341.4933"
       style="fill:#ff6e19;fill-opacity:1;fill-rule:nonzero;stroke:none;stroke-width:1;stroke-dasharray:none" /><path
       id="path32"
       d="m -6481.7845,5086.762 c -5.6787,0 -11.404,-0.04 -17.1934,-0.1467 -9.4746,-0.1866 -19.2626,-0.4666 -29.2426,-0.9466 -4.6534,-0.1867 -8.988,-0.4667 -13.3294,-0.7467 -27.1386,-1.72 -53.3306,-5.0267 -77.8772,-9.8 -44.924,-8.72 -85.8987,-22.6667 -121.8,-41.4533 -116.836,-61.16 -160.0814,-163.2267 -175.788,-238.0934 -25.556,-121.8266 4.9666,-242.9066 46.6666,-294.9866 65.6694,-82.12 84.8174,-160.6 88.1614,-216.7333 11.7173,11.6533 22.452,25.4933 31.0413,40.52 16.736,29.24 22.6747,58.4666 16.2933,80.1733 -14.3626,48.68 -28.5293,144.7333 9.5627,195.6667 15.268,20.4266 37.5333,31.6666 62.704,31.6666 12.3387,0 25.4267,-2.7066 38.9053,-8.0533 30.6133,-12.0667 54.2546,-35.68 68.3253,-68.2667 41.3973,-95.8666 -7.7907,-240.52 -30.864,-298.2666 -21.524,-53.6934 -14.2147,-118.16 22.332,-197.12 36.3027,-78.6534 81.708,-154.28 127.816,-214.04 12.5267,38.88 30.6333,77.16 47.456,112.7066 8.392,17.7334 16.3133,34.4934 22.896,49.96 9.436,22.1734 18.988,44.28 28.544,66.4 23.2907,53.92 47.3747,109.6667 69.0893,165 16.5734,42.3067 11.7334,51.6534 -11.5946,96.6267 -57.8747,112.2533 -88.9307,262.72 13.848,317.64 17.04,9.0667 32.7466,13.4667 48.08,13.4667 93.3866,0 93.3866,-143.0667 93.3866,-228.5334 0,-52.3466 34.4934,-104.7866 72,-145.56 -2.0533,100.2934 30.6667,192.56 58.4,270.7867 16.88,47.6133 32.8267,92.5867 36.8934,128.9066 7.5066,67.88 -34.0534,210.4934 -177.5867,304.1067 -41.4667,27.0533 -88.9733,48.24 -141.2267,62.96 -21.3306,6 -43.532,11 -65.956,14.8667 -16.28,2.8266 -31.524,4.96 -46.6626,6.5333 -29.5067,3.16 -60.8427,4.76 -93.28,4.76"
       style="fill:#e63c00;fill-opacity:1;fill-rule:nonzero;stroke:none;stroke-width:1;stroke-dasharray:none" /><path
       id="path33"
       d="m -6113.1259,5030.6553 c -42.28,27.5867 -92.64,51.1334 -152.0666,67.88 -22.068,6.2134 -45.3267,11.5334 -69.964,15.76 -15.8654,2.76 -32.2254,5.1334 -49.2747,6.9067 -35.7733,3.84 -74.208,5.5067 -115.204,4.8267 -9.9533,-0.2 -20.104,-0.4934 -30.452,-0.9867 -4.7307,-0.2 -9.3613,-0.4933 -13.9933,-0.7867 -29.4667,-1.88 -57.06,-5.4266 -82.88,-10.4533 -50.7533,-9.84 -94.7066,-25.4133 -132.5493,-45.2133 -9.856,-31.1334 -12.7133,-59.32 -10.644,-79.6134 8.7707,-85.32 87.4133,-205.4266 49.5707,-338.1333 0,0 104.856,76.6533 104.856,167.88 0,91.24 8.7719,148.1867 52.4292,122.8667 54.9907,-31.8267 19.1174,-136.9467 -1.5773,-180.4 -16.36,-34.2934 -22.272,-49.2667 -8.2787,-88.08 19.2174,-53.3067 40.8987,-105.6267 61.5934,-158.3333 18.4293,-47.2934 51.64,-107.7867 52.1333,-160 47.008,51.72 89.4827,128.1733 117.5693,194.1866 20.7947,48.68 33.704,103.8534 14.5854,155.5733 -34.9854,94.88 -41.9814,192.8134 9.56,214.88 51.64,22.1734 51.64,-63.1466 37.0546,-116.8533 -14.5853,-53.7867 34.9854,-126.4 81.5987,-139.0133 0,0 -23.36,85.2266 46.6133,180.1066 27.2934,37.04 45.8267,110.44 39.32,187"
       style="fill:#f28705;fill-opacity:1;fill-rule:nonzero;stroke:none;stroke-width:1;stroke-dasharray:none" /><path
       id="path34"
       d="m -6539.8432,5077.3487 c -4.2373,14.3866 -6.504,32.9066 -4.2373,46.9066 -29.4667,-1.88 -57.06,-5.4266 -82.88,-10.4533 2.5614,-5.0133 5.42,-9.4533 8.4747,-13.2933 42.8693,-53.5067 28.5786,-101.7734 28.5786,-101.7734 28.58,7.1867 59.032,48.2667 50.064,78.6134"
       style="fill:#f29f05;fill-opacity:1;fill-rule:nonzero;stroke:none;stroke-width:1;stroke-dasharray:none" /><path
       id="path35"
       d="m -6360.4832,5004.1487 c 8.5733,21.9733 4.9267,30.44 -5.0267,49.8533 -7.7853,15.08 -19.1186,43.4533 -18.9213,67.2 -35.7733,3.84 -74.208,5.5067 -115.204,4.8267 10.7413,-23.4534 4.336,-64.24 -11.6293,-104.04 -11.7267,-29.2667 -3.744,-60.5067 8.968,-87.9867 17.2466,-37.3467 43.264,-80.4933 72.04,-109.76 0.296,29.56 20.696,63.7467 32.028,90.4533 12.7133,29.7467 25.9186,59.3067 37.7453,89.4534"
       style="fill:#f29f05;fill-opacity:1;fill-rule:nonzero;stroke:none;stroke-width:1;stroke-dasharray:none" /><path
       id="path36"
       d="m -6265.1925,5098.5353 c -22.068,6.2134 -45.3267,11.5334 -69.964,15.76 0.592,-8.3733 0.7893,-17.7333 0.7893,-27.7733 0,-51.6267 64.348,-94.88 64.348,-94.88 -11.8213,38.0267 -5.2133,74.1867 4.8267,106.8933"
       style="fill:#f29f05;fill-opacity:1;fill-rule:nonzero;stroke:none;stroke-width:1;stroke-dasharray:none" /><path
       id="path37"
       d="m -2964.2059,4266.2287 c -47.5734,91.1467 -110.9867,107 -110.9867,107 -15.8533,-380.44 -380.5333,-641.9867 -380.5333,-641.9867 0,0 -364.68,261.5467 -380.5334,641.9867 0,0 -63.4266,-15.8533 -110.9866,-107 0,0 -245.76,673.6933 491.52,859.9466 737.2799,-186.2533 491.52,-859.9466 491.52,-859.9466"
       style="fill:#ff6e19;fill-opacity:1;fill-rule:nonzero;stroke:none;stroke-width:1;stroke-dasharray:none" /><path
       id="path38"
       d="m -3455.7259,5079.3887 c -205.6134,-54.1334 -347.8934,-153.2 -423.0134,-294.5734 -79.6266,-149.8666 -66.92,-316.8399 -48.1066,-415.7866 39.04,36.8667 73.9866,46.76 79.6,48.16 l 53.96,13.48 2.3066,-55.56 c 12.3334,-295.8533 253.8534,-519.1733 335.2,-586.24 81.28,67.2 323,291.16 335.2934,586.24 l 2.32,55.56 53.96,-13.48 c 5.6,-1.4 40.56,-11.2933 79.6,-48.16 18.8,98.92 31.52,265.92 -48.1067,415.7866 -75.12,141.3734 -217.4,240.44 -423.0133,294.5734"
       style="fill:#e63c00;fill-opacity:1;fill-rule:nonzero;stroke:none;stroke-width:1;stroke-dasharray:none" /><path
       id="path39"
       d="m -3105.4993,4513.4287 c -33.8933,64.9467 -79.08,76.24 -79.08,76.24 -11.3066,-271.08 -271.1466,-457.44 -271.1466,-457.44 0,0 -259.8534,186.36 -271.1467,457.44 0,0 -45.1867,-11.2933 -79.08,-76.24 0,0 -175.12,480.0266 350.2267,612.7466 525.3466,-132.72 350.2266,-612.7466 350.2266,-612.7466"
       style="fill:#f28705;fill-opacity:1;fill-rule:nonzero;stroke:none;stroke-width:1;stroke-dasharray:none" /><path
       id="path40"
       d="m -3235.6593,4741.162 c -21.3066,40.8133 -49.6933,47.9067 -49.6933,47.9067 -7.1067,-170.3333 -170.3733,-287.4267 -170.3733,-287.4267 0,0 -163.28,117.0934 -170.3734,287.4267 0,0 -28.4,-7.0934 -49.6933,-47.9067 0,0 -110.0267,301.6267 220.0667,385.0133 330.0933,-83.3866 220.0666,-385.0133 220.0666,-385.0133"
       style="fill:#f29f05;fill-opacity:1;fill-rule:nonzero;stroke:none;stroke-width:1;stroke-dasharray:none" /><g
       id="g41"
       transform="matrix(3.3828379,0,0,3.3828379,-6785.4517,-3196.882)"><path
         id="path23"
         d="m 3079.1458,2302.1338 c -13.0696,11.2606 -26.2297,21.8581 -39.5857,31.5208 -211.39,155.0867 -454.979,120.7168 -599.5889,-11.8334 -69.0412,-63.2528 -115.5462,-148.9363 -125.2089,-246.9358 -31.159,-316.3387 202.7673,-389.9022 202.7673,-389.9022 0,0 -100.2907,218.3392 55.6853,294.0887 155.9911,75.7343 213.9526,-113.6318 131.5553,-245.0514 -82.4877,-131.5101 -158.2523,-354.2058 -26.8025,-532.4922 131.5403,-178.1958 300.8873,-111.3554 300.8873,-111.3554 0,0 -345.4023,62.4085 -86.9497,394.2739 258.558,331.956 464.8226,576.9922 187.2405,817.687"
         style="fill:#ff6e19;fill-opacity:1;fill-rule:nonzero;stroke:none;stroke-width:1.13059;stroke-dasharray:none" /><path
         id="path24"
         d="m 2739.9541,2398.4298 c -103.4112,0 -200.8529,-37.1285 -274.3864,-104.5267 -64.6093,-59.1976 -104.7829,-138.2936 -113.1041,-222.726 -16.3407,-165.9855 45.7814,-257.2466 100.8485,-304.6258 -15.3608,88.9246 -2.1103,195.3809 103.366,246.5739 28.8677,14.0344 56.8008,21.1495 83.0003,21.1495 49.1429,0 91.5476,-25.7171 116.3451,-70.5035 37.9576,-68.574 30.0737,-171.3219 -19.1597,-249.8601 -42.0127,-66.9761 -168.2165,-300.2844 -28.4004,-489.9067 33.571,-45.4798 69.6142,-72.6893 103.7428,-88.4572 -17.2,17.8181 -31.9881,39.2541 -41.8016,64.9109 -32.2745,84.372 -1.4471,187.753 91.6079,307.2487 l 24.1494,30.963 c 269.3363,345.1461 399.1279,534.5876 168.1712,734.8526 -13.1449,11.3209 -25.2648,20.9837 -36.9929,29.4556 -85.1709,62.4989 -181.0147,95.4518 -277.3861,95.4518"
         style="fill:#e63c00;fill-opacity:1;fill-rule:nonzero;stroke:none;stroke-width:1.13059;stroke-dasharray:none" /><path
         id="path25"
         d="m 3039.5601,2333.6395 c -211.39,155.0866 -454.979,120.7167 -599.5889,-11.8335 -37.3245,-90.8993 -50.575,-197.039 -11.5621,-307.1583 0,0 1.9899,3.9796 5.8791,10.8988 14.7729,61.8206 36.842,122.6162 76.9855,171.744 80.7843,98.9492 264.995,146.7655 374.3907,66.2827 160.2421,-117.8827 68.2724,-387.7316 -15.5418,-522.3621 -15.1499,-24.3453 -31.7319,-47.6355 -49.9118,-69.8855 39.4049,26.6065 250.2219,180.2761 274.4617,434.6888 8.1402,85.1257 -15.7226,161.6289 -55.1124,227.6251"
         style="fill:#f29f05;fill-opacity:1;fill-rule:nonzero;stroke:none;stroke-width:1.13059;stroke-dasharray:none" /><path
         id="path26"
         d="m 2885.6644,2263.5732 c -109.3957,80.4828 -293.6064,32.6665 -374.3907,-66.2827 -40.1435,-49.1278 -62.2126,-109.9234 -76.9855,-171.744 24.2398,42.9776 122.1638,197.416 268.2057,176.2966 169.3321,-24.5263 222.8466,-229.5095 111.476,-534.678 0,0 2.2612,1.4169 6.2409,4.1605 18.1799,22.25 34.7619,45.5402 49.9118,69.8855 83.8142,134.6305 175.7839,404.4794 15.5418,522.3621"
         style="fill:#f28705;fill-opacity:1;fill-rule:nonzero;stroke:none;stroke-width:1.13059;stroke-dasharray:none" /></g></g></svg>
